<svg xmlns="http://www.w3.org/2000/svg" viewBox="0 0 792.66 290.82"><g id="Layer_2" data-name="Layer 2"><g id="Layer_1-2" data-name="Layer 1"><path d="M42.39,20.1H0V5.48H100.12V20.1H57.73V124.24H42.39Z"/><path d="M155.29,45.31c-15.17,0-27.77,12.61-27.77,30v49H112.9V0h14.62V48.05c4.38-10.78,16.07-17.36,30-17.36,20.65,0,35.44,15.9,35.44,38v55.54H178.31V69.79C178.31,55.54,169,45.31,155.29,45.31Z"/><path d="M204.61,78.93c0-28,18.27-48.24,43.85-48.24,26.31,0,43.12,21.2,43.12,50.43a21.69,21.69,0,0,1-.19,3.11h-70.7c2.19,16.26,13.52,27.58,28.5,27.58,12.06,0,23-7.67,25.21-18.27l16.45,5.12c-4,16.08-21.2,27.77-41.66,27.77C222.88,126.43,204.61,106.51,204.61,78.93Zm71.25-9c-2.92-16.07-15-25-28.13-25-13.52,0-23.94,10.05-26.68,25Z"/><path d="M201.11,133.34a7.54,7.54,0,1,1-7.3,7.54A7.18,7.18,0,0,1,201.11,133.34Zm7.31,27.4v91.35H193.81V160.74Z"/><path d="M227.05,258.67l16.08-4.39c1.83,12.79,13.15,21.56,27.77,21.56,16.63,0,28.5-11.51,28.5-27.4V235.28a38.67,38.67,0,0,1-32.52,16.81c-23.75,0-43.48-18.82-43.48-46.59,0-27.22,19.55-46.95,44.21-46.95,14.07,0,25.4,6.58,32.34,17.17l1.28-15H314V247c0,25.57-18.27,43.84-43.85,43.84C248.06,290.82,229.79,277.3,227.05,258.67Zm42-20.46c17.54,0,30.33-13.71,30.33-32.71s-12.79-32.7-30.33-32.7-30.32,13.7-30.32,32.7S251.53,238.21,269.07,238.21Z"/><path d="M374.3,173.16c-15.16,0-27.77,12.61-27.77,30v49H331.92V127.86h14.61v48.05c4.39-10.78,16.08-17.36,30-17.36,20.64,0,35.44,15.89,35.44,38v55.54H397.32V197.65C397.32,183.4,388,173.16,374.3,173.16Z"/><path d="M421.43,160.74h5.85c5.66,0,9.87-4.75,9.87-11.33v-12H451v23.38h20.1V175H451v53c0,6.76,4.93,11.32,12.43,11.32a26,26,0,0,0,7.67-1.09l.36,14.61a36.16,36.16,0,0,1-10.23,1.46c-14.8,0-24.84-9.31-24.84-23.38V175h-15Z"/><path d="M521.55,240.4c10.23,0,17.91-5.48,17.91-13.16,0-20.82-54.08-11.87-54.08-43.84,0-16.08,14.43-24.85,32.52-24.85,18.82,0,32.7,10.41,34.71,24.85l-15.35,4c-.36-9-8.77-15.35-19.36-15.35-9.14,0-16.81,4.75-16.81,12.06,0,19.73,54.44,11.14,54.44,43.11,0,16.08-14.25,27-35.07,27-21.75,0-38.19-12.24-39.47-29.23l16.08-4.38C497.8,232.18,509,240.4,521.55,240.4Z"/><path d="M580,133.34a7.54,7.54,0,1,1-7.31,7.54A7.19,7.19,0,0,1,580,133.34Zm7.31,27.4v91.35H572.7V160.74Z"/><path d="M602.3,206.05c0-26.86,19-47.5,44-47.5a38.16,38.16,0,0,1,32,16.26V127.86h14.62v106l.36,18.27H680.86L679,237.29c-6.94,10.78-18.27,17-32,17C621.84,254.28,602.3,233.09,602.3,206.05Zm46.22,33.62c17.72,0,30.15-13.7,30.15-33.25s-13-33.62-30.88-33.62c-17.54,0-30.15,14.07-30.15,33.62C617.64,225.6,630.61,239.67,648.52,239.67Z"/><path d="M705.7,206.78c0-27.95,18.27-48.23,43.85-48.23,26.3,0,43.11,21.19,43.11,50.42a22.73,22.73,0,0,1-.18,3.11H721.77c2.2,16.26,13.52,27.59,28.51,27.59,12.05,0,23-7.67,25.21-18.27l16.44,5.11c-4,16.08-21.19,27.77-41.65,27.77C724,254.28,705.7,234.37,705.7,206.78ZM777,197.83c-2.92-16.08-15-25-28.14-25-13.52,0-23.93,10-26.67,25Z"/><path d="M73.23,206.46v45.63H88.58V204.88a74,74,0,0,1-15.21,1.58Z"/><path d="M155.08,133.34V228l-29-43.9a73.46,73.46,0,0,1-12,10l38.79,58h17.54V133.34Z"/><path d="M92.6,133.34l33.5,50.74a72.51,72.51,0,0,0,20.64-50.74"/><path d="M0,133.34a73.16,73.16,0,0,0,73.23,73.12V133.34"/><path d="M88.58,204.88a73,73,0,0,0,25.52-10.76L88.58,156Z"/></g></g></svg>